{
  "asset": {
    "generator": "glTF-Transform v4.2.1",
    "version": "2.0"
  },
  "accessors": [
    {
      "type": "VEC3",
      "componentType": 5126,
      "count": 4755,
      "max": [
        61.91355514526367,
        62.416053771972656,
        29.017946243286133
      ],
      "min": [
        4.257488250732422,
        -36.34394073486328,
        -229.95530700683594
      ],
      "bufferView": 0,
      "byteOffset": 0
    },
    {
      "type": "VEC3",
      "componentType": 5126,
      "count": 4755,
      "bufferView": 0,
      "byteOffset": 12
    },
    {
      "type": "SCALAR",
      "componentType": 5125,
      "count": 24786,
      "bufferView": 1,
      "byteOffset": 0
    }
  ],
  "bufferViews": [
    {
      "buffer": 0,
      "byteOffset": 0,
      "byteLength": 114120,
      "byteStride": 24,
      "target": 34962
    },
    {
      "buffer": 0,
      "byteOffset": 114120,
      "byteLength": 99144,
      "target": 34963
    }
  ],
  "buffers": [
    {
      "uri": "buffer.bin",
      "byteLength": 213264
    }
  ],
  "materials": [
    {
      "pbrMetallicRoughness": {
        "baseColorFactor": [
          0.6038273388475408,
          0.6038273388475408,
          0.6038273388475408,
          1
        ],
        "metallicFactor": 0
      }
    }
  ],
  "meshes": [
    {
      "primitives": [
        {
          "attributes": {
            "POSITION": 0,
            "NORMAL": 1
          },
          "mode": 4,
          "material": 0,
          "indices": 2
        }
      ]
    }
  ],
  "nodes": [
    {
      "name": "empty_2",
      "mesh": 0
    }
  ],
  "scenes": [
    {
      "name": "empty_1",
      "nodes": [
        0
      ]
    }
  ],
  "scene": 0
}