<svg xmlns="http://www.w3.org/2000/svg" width="720" height="960" viewBox="0 0 720 960" fill="none">
  <defs>
    <linearGradient id="cardBody" x1="127" y1="88" x2="612" y2="914" gradientUnits="userSpaceOnUse">
      <stop offset="0" stop-color="#D1A67F" />
      <stop offset="1" stop-color="#9E7148" />
    </linearGradient>
    <linearGradient id="edgeTone" x1="49" y1="173" x2="182" y2="828" gradientUnits="userSpaceOnUse">
      <stop offset="0" stop-color="#A87954" />
      <stop offset="1" stop-color="#7F5532" />
    </linearGradient>
    <linearGradient id="sideTone" x1="534" y1="271" x2="683" y2="848" gradientUnits="userSpaceOnUse">
      <stop offset="0" stop-color="#BD8F67" />
      <stop offset="1" stop-color="#885C38" />
    </linearGradient>
  </defs>

  <rect width="720" height="960" fill="none" />

  <g transform="translate(120 80)">
    <path d="M73 76 L503 8 L629 264 L189 333 Z" fill="url(#cardBody)" />
    <path d="M73 76 L189 333 L182 844 L49 584 Z" fill="url(#edgeTone)" />
    <path d="M189 333 L629 264 L611 773 L182 844 Z" fill="url(#sideTone)" />

    <path d="M123 116 L470 61 L561 245 L204 302 Z" stroke="#E0BC96" stroke-opacity="0.62" stroke-width="7" />
    <path d="M186 363 L567 301 L551 737 L196 796 Z" stroke="#70482B" stroke-opacity="0.36" stroke-width="6" />

    <circle cx="477" cy="124" r="19" fill="#C89F78" />
    <circle cx="477" cy="124" r="8" fill="#9A6D46" fill-opacity="0.7" />

    <circle cx="192" cy="665" r="16" fill="#996A45" fill-opacity="0.78" />
    <circle cx="560" cy="612" r="14" fill="#8F6340" fill-opacity="0.62" />

    <path d="M96 142 C123 132 145 123 168 121" stroke="#E2BF99" stroke-opacity="0.66" stroke-width="8" stroke-linecap="round" />
    <path d="M87 573 C107 563 127 556 152 554" stroke="#6A4124" stroke-opacity="0.46" stroke-width="8" stroke-linecap="round" />
  </g>
</svg>
